<svg width="427" height="276" viewBox="0 0 427 276" fill="none" xmlns="http://www.w3.org/2000/svg">
  <g id="f4201c65">
    <path d="M283 0H300L297 16H279.5L283 0Z" fill="#61C1BF"></path>
    <path d="M257 15H280.5L275.5 38H251L257 15Z" fill="#61C1BF"></path>
    <path d="M267 59H284.5L280.5 75H263.5L267 59Z" fill="#61C1BF"></path>
    <path d="M204.5 36H222L218 53H200.5L204.5 36Z" fill="#61C1BF"></path>
    <path d="M216 52H239.5L234 75H210L216 52Z" fill="#61C1BF"></path>
    <path d="M232 74H264.5L257 106H224L232 74Z" fill="#61C1BF"></path>
    <path d="M178.5 105H224.5L214 151H166L178.5 105Z" fill="#61C1BF"></path>
    <path d="M162 84H186L180 106.5H156L162 84Z" fill="#61C1BF"></path>
    <path d="M135 150H168.5L160.5 182H127.5L135 150Z" fill="#61C1BF"></path>
    <path d="M0 217.13V206.63H41.5V217.13H26V272.13H15.5V217.13H0Z" fill="#D9D9D9"></path>
    <path d="M51.5 272.13V206.63H62.5V232.13H89.5V206.63H100.5V272.13H89.5V242.63H62.5V272.13H51.5Z" fill="#D9D9D9"></path>
    <path d="M149.5 206.63H114V272.13H149.5V261.13H125V242.63H147.5V232.13H125V217.13H149.5V206.63Z" fill="#D9D9D9"></path>
    <path d="M192.5 206.63V272.13H203V251.13H215.5C224.3 253.53 229.5 266.13 231 272.13H241.5C241.9 262.53 234.667 252.13 231 248.13C253 228.93 236.833 212.463 226 206.63H192.5Z" fill="#D9D9D9"></path>
    <path d="M327.5 207.13L309 272.13H320L323.5 258.13L344.5 253.13L351 272.13H361.5L342.5 207.13H327.5Z" fill="#D9D9D9"></path>
    <path d="M372.5 207.13V272.13H406C419.2 270.13 425.5 256.296 427 249.63V229.63C427 216.83 413 209.296 406 207.13H372.5Z" fill="#D9D9D9"></path>
    <path d="M308 242.13C308 260.355 294.569 275.13 278 275.13C260.104 276.178 246.444 259.084 248 239.63C247.482 219.739 260.885 203.371 278 205.13C296.774 203.985 309.726 223.009 308 242.13Z" fill="#D9D9D9"></path>
    <path d="M296.585 15.5H280.903L280.989 15.1062L281.12 14.5H280.5H280.34L283.402 0.5H299.398L296.585 15.5ZM279.098 15.5L279.012 15.8932L278.879 16.5H279.5H279.662L275.097 37.5H251.647L257.386 15.5H279.098ZM280.11 74.5H264.896L264.987 74.1141L265.131 73.5H264.5H264.34L267.402 59.5H283.86L280.11 74.5ZM263.5 75.5H263.635L256.604 105.5H224.899L224.987 105.111L225.127 104.5H224.89L232.14 75.5H234H234.395L234.486 75.1163L234.634 74.5H263.098L263.012 74.8932L262.879 75.5H263.5ZM180.784 105.5H223.61L223.515 105.879L223.36 106.5H223.645L213.601 150.5H168.89L168.985 150.121L169.14 149.5H168.5H166.926L178.475 107H180H180.384L180.483 106.629L180.784 105.5ZM166 151.5H167.61L160.11 181.5H128.131L135.396 150.5H165.618L165.518 150.869L165.346 151.5H166ZM179.616 106H178.746L178.882 105.5H179.749L179.616 106ZM185.349 84.5L180.016 104.5H178.5H178.118L178.018 104.869L177.71 106H156.651L162.384 84.5H185.349ZM231.515 73.8787L231.36 74.5H210.647L216.125 53.5H218H218.396L218.487 53.1145L218.631 52.5H238.866L233.845 73.5H232H231.61L231.515 73.8787ZM215.516 51.8738L215.353 52.5H201.131L204.896 36.5H221.369L217.839 51.5H216H215.614L215.516 51.8738ZM16 217.13V216.63H15.5H0.5V207.13H41V216.63H26H25.5V217.13V271.63H16V217.13ZM62.5 242.13H62V242.63V271.63H52V207.13H62V232.13V232.63H62.5H89.5H90V232.13V207.13H100V271.63H90V242.63V242.13H89.5H62.5ZM125 261.63H149V271.63H114.5V207.13H149V216.63H125H124.5V217.13V232.13V232.63H125H147V242.13H125H124.5V242.63V261.13V261.63H125ZM237.331 258.259C239.454 262.377 241.081 267.098 241.014 271.63H231.388C230.586 268.587 228.926 264.096 226.413 260.017C223.803 255.78 220.216 251.897 215.632 250.647L215.567 250.63H215.5H203H202.5V251.13V271.63H193V207.13H225.873C231.216 210.033 237.774 215.503 240.343 222.539C241.631 226.066 241.919 229.991 240.548 234.211C239.174 238.438 236.123 242.995 230.671 247.753L230.285 248.09L230.631 248.467C232.437 250.437 235.136 254.001 237.331 258.259ZM319.61 271.63H309.662L327.878 207.63H342.125L360.833 271.63H351.357L344.973 252.968L344.826 252.538L344.384 252.643L323.384 257.643L323.089 257.714L323.015 258.008L319.61 271.63ZM307.502 242.085L307.5 242.107V242.13C307.5 260.125 294.249 274.63 278 274.63H277.985L277.971 274.63C260.458 275.656 246.96 258.907 248.498 239.669L248.501 239.643L248.5 239.617C247.987 219.903 261.245 203.911 277.949 205.627L277.99 205.631L278.03 205.629C287.224 205.068 295.005 209.44 300.29 216.334C305.581 223.235 308.354 232.645 307.502 242.085ZM373 207.63H405.924C409.372 208.708 414.516 211.096 418.799 214.772C423.112 218.472 426.5 223.429 426.5 229.63V249.574C425.754 252.849 423.834 257.876 420.488 262.329C417.133 266.794 412.375 270.646 405.962 271.63H373V207.63Z" stroke="black"></path>
  </g>
</svg>